<svg width="201" height="39" viewBox="0 0 201 39" fill="none" xmlns="http://www.w3.org/2000/svg">
<path d="M0.5 35.1175L11.275 3.88257H18.654L29.429 35.1175H23.224L21.0019 28.4094H8.92715L6.66314 35.1175H0.5ZM10.5623 23.3782H19.3668L14.1679 7.82363H15.7611L10.5623 23.3782Z" fill="white" style="fill:white;fill-opacity:1;"/>
<path d="M35.5947 35.1175V3.88257H47.2082C49.3325 3.88257 51.2052 4.27388 52.8263 5.0565C54.4754 5.81117 55.7611 6.9292 56.6835 8.41059C57.6059 9.86403 58.0671 11.6389 58.0671 13.7352C58.0671 15.8874 57.55 17.7182 56.5158 19.2275C55.5096 20.7369 54.14 21.8549 52.407 22.5816L59.5764 35.1175H53.1198L45.4473 21.4077L49.1368 23.5879H41.2966V35.1175H35.5947ZM41.2966 18.5567H47.2921C48.3262 18.5567 49.2207 18.3611 49.9753 17.9698C50.73 17.5505 51.317 16.9775 51.7362 16.2508C52.1555 15.5241 52.3651 14.6855 52.3651 13.7352C52.3651 12.7569 52.1555 11.9184 51.7362 11.2196C51.317 10.4929 50.73 9.93391 49.9753 9.5426C49.2207 9.12334 48.3262 8.91371 47.2921 8.91371H41.2966V18.5567Z" fill="white" style="fill:white;fill-opacity:1;"/>
<path d="M85.7802 34.914C80.4658 34.914 75.369 33.29 71.6111 30.3993C67.8532 27.5086 65.742 23.588 65.742 19.5C65.742 15.4119 67.8532 11.4913 71.6111 8.6006C75.369 5.70991 80.4658 4.08594 85.7802 4.08594V34.914Z" fill="white" style="fill:white;fill-opacity:1;"/>
<path d="M91.9459 35.1175L102.721 3.88257H110.1L120.875 35.1175H114.67L112.448 28.4094H100.373L98.109 35.1175H91.9459ZM102.008 23.3782H110.813L105.614 7.82363H107.207L102.008 23.3782Z" fill="white" style="fill:white;fill-opacity:1;"/>
<path d="M127.04 35.1175V3.88257H137.229C140.527 3.88257 143.392 4.55339 145.823 5.89502C148.283 7.20871 150.184 9.03948 151.525 11.3873C152.867 13.7073 153.538 16.4045 153.538 19.4791C153.538 22.5257 152.867 25.2369 151.525 27.6128C150.184 29.9606 148.283 31.8054 145.823 33.147C143.392 34.4607 140.527 35.1175 137.229 35.1175H127.04ZM132.742 30.0864H137.354C139.479 30.0864 141.309 29.6532 142.847 28.7867C144.412 27.8923 145.628 26.6624 146.494 25.0972C147.361 23.504 147.794 21.6313 147.794 19.4791C147.794 17.2989 147.361 15.4262 146.494 13.861C145.628 12.2957 144.412 11.0799 142.847 10.2134C141.309 9.34694 139.479 8.91371 137.354 8.91371H132.742V30.0864Z" fill="white" style="fill:white;fill-opacity:1;"/>
<path d="M159.703 35.1175V3.88257H165.405V35.1175H159.703Z" fill="white" style="fill:white;fill-opacity:1;"/>
<path d="M171.571 35.1175L182.346 3.88257H189.725L200.5 35.1175H194.295L192.073 28.4094H179.998L177.734 35.1175H171.571ZM181.633 23.3782H190.438L185.239 7.82363H186.832L181.633 23.3782Z" fill="white" style="fill:white;fill-opacity:1;"/>
</svg>
