<svg width="200" height="32" viewBox="0 0 200 32" fill="none" xmlns="http://www.w3.org/2000/svg">
<path d="M0 31.235L10.775 0H18.154L28.929 31.235H22.724L20.5019 24.5268H8.42715L6.16314 31.235H0ZM10.0623 19.4957H18.8668L13.6679 3.94106H15.2611L10.0623 19.4957Z" fill="#7096D1" style="fill:#7096D1;fill:color(display-p3 0.4392 0.5882 0.8196);fill-opacity:1;"/>
<path d="M35.0947 31.235V0H46.7083C48.8325 0 50.7052 0.391311 52.3264 1.17393C53.9755 1.9286 55.2612 3.04663 56.1836 4.52802C57.1059 5.98146 57.5671 7.75634 57.5671 9.85264C57.5671 12.0049 57.05 13.8356 56.0159 15.345C55.0096 16.8543 53.6401 17.9723 51.9071 18.6991L59.0765 31.235H52.6199L44.9474 17.5251L48.6369 19.7053H40.7967V31.235H35.0947ZM40.7967 14.6742H46.7921C47.8263 14.6742 48.7207 14.4785 49.4754 14.0872C50.2301 13.6679 50.817 13.0949 51.2363 12.3682C51.6556 11.6415 51.8652 10.803 51.8652 9.85264C51.8652 8.87437 51.6556 8.03584 51.2363 7.33707C50.817 6.61036 50.2301 6.05134 49.4754 5.66003C48.7207 5.24077 47.8263 5.03114 46.7921 5.03114H40.7967V14.6742Z" fill="#7096D1" style="fill:#7096D1;fill:color(display-p3 0.4392 0.5882 0.8196);fill-opacity:1;"/>
<path d="M85.2804 31.0314C79.9659 31.0314 74.8691 29.4074 71.1112 26.5167C67.3534 23.6261 65.2422 19.7054 65.2422 15.6174C65.2422 11.5293 67.3534 7.60872 71.1112 4.71803C74.8691 1.82734 79.9659 0.203369 85.2804 0.203369V31.0314Z" fill="#7096D1" style="fill:#7096D1;fill:color(display-p3 0.4392 0.5882 0.8196);fill-opacity:1;"/>
<path d="M91.4463 31.235L102.221 0H109.6L120.375 31.235H114.17L111.948 24.5268H99.8734L97.6094 31.235H91.4463ZM101.509 19.4957H110.313L105.114 3.94106H106.707L101.509 19.4957Z" fill="#7096D1" style="fill:#7096D1;fill:color(display-p3 0.4392 0.5882 0.8196);fill-opacity:1;"/>
<path d="M126.54 31.235V0H136.728C140.026 0 142.891 0.670819 145.323 2.01246C147.783 3.32614 149.683 5.15692 151.025 7.50478C152.367 9.82469 153.037 12.5219 153.037 15.5965C153.037 18.6432 152.367 21.3544 151.025 23.7302C149.683 26.0781 147.783 27.9228 145.323 29.2644C142.891 30.5781 140.026 31.235 136.728 31.235H126.54ZM132.242 26.2038H136.854C138.978 26.2038 140.809 25.7706 142.346 24.9041C143.911 24.0097 145.127 22.7799 145.994 21.2146C146.86 19.6214 147.293 17.7487 147.293 15.5965C147.293 13.4164 146.86 11.5437 145.994 9.97842C145.127 8.41318 143.911 7.19732 142.346 6.33085C140.809 5.46438 138.978 5.03114 136.854 5.03114H132.242V26.2038Z" fill="#7096D1" style="fill:#7096D1;fill:color(display-p3 0.4392 0.5882 0.8196);fill-opacity:1;"/>
<path d="M159.203 31.235V0H164.905V31.235H159.203Z" fill="#7096D1" style="fill:#7096D1;fill:color(display-p3 0.4392 0.5882 0.8196);fill-opacity:1;"/>
<path d="M171.071 31.235L181.846 0H189.225L200 31.235H193.795L191.573 24.5268H179.498L177.234 31.235H171.071ZM181.134 19.4957H189.938L184.739 3.94106H186.332L181.134 19.4957Z" fill="#7096D1" style="fill:#7096D1;fill:color(display-p3 0.4392 0.5882 0.8196);fill-opacity:1;"/>
</svg>
